<svg width="29" height="29" viewBox="0 0 29 29" fill="none" xmlns="http://www.w3.org/2000/svg">
<path d="M25.1099 20.5787L19.6724 26.0162C19.5024 26.1862 19.2717 26.2818 19.0312 26.2818C18.7908 26.2818 18.5601 26.1862 18.3901 26.0162C18.22 25.8461 18.1245 25.6155 18.1245 25.375C18.1245 25.1345 18.22 24.9039 18.3901 24.7338L22.2813 20.8438H8.15625C7.9159 20.8438 7.68539 20.7483 7.51543 20.5783C7.34548 20.4084 7.25 20.1779 7.25 19.9375V3.625C7.25 3.38465 7.34548 3.15414 7.51543 2.98418C7.68539 2.81423 7.9159 2.71875 8.15625 2.71875C8.3966 2.71875 8.62711 2.81423 8.79707 2.98418C8.96702 3.15414 9.0625 3.38465 9.0625 3.625V19.0312H22.2813L18.3901 15.1412C18.22 14.9711 18.1245 14.7405 18.1245 14.5C18.1245 14.2595 18.22 14.0289 18.3901 13.8588C18.5601 13.6888 18.7908 13.5932 19.0312 13.5932C19.2717 13.5932 19.5024 13.6888 19.6724 13.8588L25.1099 19.2963C25.1942 19.3805 25.261 19.4804 25.3066 19.5905C25.3522 19.7005 25.3757 19.8184 25.3757 19.9375C25.3757 20.0566 25.3522 20.1745 25.3066 20.2845C25.261 20.3946 25.1942 20.4945 25.1099 20.5787Z" fill="#111112"/>
</svg>
