<svg xmlns="http://www.w3.org/2000/svg" width="47" height="80" viewBox="0 0 47 80" fill="none"><path d="M43.5451 60C45.5304 58.0388 46.6667 55.7619 46.6667 53.3333C46.6667 45.9695 36.22 40 23.3333 40C10.4467 40 0 45.9695 0 53.3333C0 55.7619 1.13627 58.0388 3.12159 60C7.15603 56.0147 14.6967 53.3333 23.3333 53.3333C31.97 53.3333 39.5106 56.0147 43.5451 60Z" fill="url(#paint0_linear_6488_276)"></path><path d="M23.3333 66.6666C36.22 66.6666 46.6667 60.697 46.6667 53.3333V66.6666C46.6667 74.0304 36.22 79.9999 23.3333 79.9999C10.4467 79.9999 0 74.0304 0 66.6666V53.3333C0 60.697 10.4467 66.6666 23.3333 66.6666Z" fill="url(#paint1_linear_6488_276)"></path><path d="M43.5451 40C45.5304 38.0388 46.6667 35.7619 46.6667 33.3333C46.6667 25.9695 36.22 20 23.3333 20C10.4467 20 0 25.9695 0 33.3333C0 35.7619 1.13627 38.0388 3.12159 40C7.15603 36.0147 14.6967 33.3333 23.3333 33.3333C31.97 33.3333 39.5106 36.0147 43.5451 40Z" fill="url(#paint2_linear_6488_276)"></path><path d="M23.3333 46.6666C36.22 46.6666 46.6667 40.697 46.6667 33.3333V46.6666C46.6667 54.0304 36.22 59.9999 23.3333 59.9999C10.4467 59.9999 0 54.0304 0 46.6666V33.3333C0 40.697 10.4467 46.6666 23.3333 46.6666Z" fill="url(#paint3_linear_6488_276)"></path><path d="M43.5451 20C45.5304 18.0388 46.6667 15.7619 46.6667 13.3333C46.6667 5.96954 36.22 0 23.3333 0C10.4467 0 0 5.96954 0 13.3333C0 15.7619 1.13627 18.0388 3.12159 20C7.15603 16.0147 14.6967 13.3333 23.3333 13.3333C31.97 13.3333 39.5106 16.0147 43.5451 20Z" fill="url(#paint4_linear_6488_276)"></path><path d="M23.3333 26.6666C36.22 26.6666 46.6667 20.697 46.6667 13.3333V26.6666C46.6667 34.0304 36.22 39.9999 23.3333 39.9999C10.4467 39.9999 0 34.0304 0 26.6666V13.3333C0 20.697 10.4467 26.6666 23.3333 26.6666Z" fill="url(#paint5_linear_6488_276)"></path><defs><linearGradient id="paint0_linear_6488_276" x1="23.3333" y1="40" x2="23.3333" y2="58.3333" gradientUnits="userSpaceOnUse"><stop stop-color="#ADADAD"></stop><stop offset="1" stop-color="#151515"></stop></linearGradient><linearGradient id="paint1_linear_6488_276" x1="23.3333" y1="61.111" x2="23.3333" y2="79.9999" gradientUnits="userSpaceOnUse"><stop stop-color="white" stop-opacity="0.9"></stop><stop offset="1" stop-color="#151515"></stop></linearGradient><linearGradient id="paint2_linear_6488_276" x1="23.3333" y1="20" x2="23.3333" y2="38.3333" gradientUnits="userSpaceOnUse"><stop stop-color="#ADADAD"></stop><stop offset="1" stop-color="#151515"></stop></linearGradient><linearGradient id="paint3_linear_6488_276" x1="23.3333" y1="41.111" x2="23.3333" y2="59.9999" gradientUnits="userSpaceOnUse"><stop stop-color="white" stop-opacity="0.9"></stop><stop offset="1" stop-color="#151515"></stop></linearGradient><linearGradient id="paint4_linear_6488_276" x1="23.3333" y1="0" x2="23.3333" y2="18.3333" gradientUnits="userSpaceOnUse"><stop stop-color="white"></stop><stop offset="1" stop-color="#151515"></stop></linearGradient><linearGradient id="paint5_linear_6488_276" x1="23.3333" y1="21.111" x2="23.3333" y2="39.9999" gradientUnits="userSpaceOnUse"><stop stop-color="white"></stop><stop offset="1" stop-color="#151515"></stop></linearGradient></defs></svg>