<svg xmlns="http://www.w3.org/2000/svg" width="93" height="80" viewBox="0 0 93 80" fill="none"><rect width="30.792" height="30.792" transform="matrix(0.5 -0.866025 1 2.20305e-08 0 80.0002)" fill="url(#paint0_linear_6488_370)"></rect><rect width="30.792" height="30.792" transform="matrix(0.5 0.866025 1 -2.20305e-08 0 26.667)" fill="url(#paint1_linear_6488_370)"></rect><rect width="30.792" height="30.792" transform="matrix(0.5 -0.866025 1 2.20305e-08 0 26.667)" fill="url(#paint2_linear_6488_370)"></rect><rect width="30.792" height="30.792" transform="matrix(0.5 -0.866025 1 2.20305e-08 23.0942 80.0002)" fill="url(#paint3_linear_6488_370)"></rect><rect width="30.792" height="30.792" transform="matrix(0.5 0.866025 1 -2.20305e-08 23.0942 26.667)" fill="url(#paint4_linear_6488_370)"></rect><rect width="30.792" height="30.792" transform="matrix(0.5 -0.866025 1 2.20305e-08 23.0942 26.667)" fill="url(#paint5_linear_6488_370)"></rect><rect width="30.792" height="30.792" transform="matrix(0.5 -0.866025 1 2.20305e-08 46.188 80.0002)" fill="url(#paint6_linear_6488_370)"></rect><rect width="30.792" height="30.792" transform="matrix(0.5 0.866025 1 -2.20305e-08 46.188 26.667)" fill="url(#paint7_linear_6488_370)"></rect><rect width="30.792" height="30.792" transform="matrix(0.5 -0.866025 1 2.20305e-08 46.188 26.667)" fill="url(#paint8_linear_6488_370)"></rect><defs><linearGradient id="paint0_linear_6488_370" x1="15.396" y1="0" x2="15.396" y2="30.792" gradientUnits="userSpaceOnUse"><stop stop-color="#151515" stop-opacity="0.6"></stop><stop offset="1" stop-color="#DADADA" stop-opacity="0.5"></stop></linearGradient><linearGradient id="paint1_linear_6488_370" x1="15.396" y1="0" x2="15.396" y2="30.792" gradientUnits="userSpaceOnUse"><stop stop-color="#151515" stop-opacity="0.6"></stop><stop offset="1" stop-color="#DADADA" stop-opacity="0.5"></stop></linearGradient><linearGradient id="paint2_linear_6488_370" x1="15.396" y1="0" x2="15.396" y2="30.792" gradientUnits="userSpaceOnUse"><stop stop-color="#151515" stop-opacity="0.6"></stop><stop offset="1" stop-color="#DADADA" stop-opacity="0.5"></stop></linearGradient><linearGradient id="paint3_linear_6488_370" x1="15.396" y1="0" x2="15.396" y2="30.792" gradientUnits="userSpaceOnUse"><stop stop-color="#151515" stop-opacity="0.6"></stop><stop offset="1" stop-color="#DADADA" stop-opacity="0.5"></stop></linearGradient><linearGradient id="paint4_linear_6488_370" x1="15.396" y1="0" x2="15.396" y2="30.792" gradientUnits="userSpaceOnUse"><stop stop-color="#151515" stop-opacity="0.6"></stop><stop offset="1" stop-color="#DADADA" stop-opacity="0.5"></stop></linearGradient><linearGradient id="paint5_linear_6488_370" x1="15.396" y1="0" x2="15.396" y2="30.792" gradientUnits="userSpaceOnUse"><stop stop-color="#151515" stop-opacity="0.6"></stop><stop offset="1" stop-color="#DADADA" stop-opacity="0.5"></stop></linearGradient><linearGradient id="paint6_linear_6488_370" x1="15.396" y1="0" x2="15.396" y2="30.792" gradientUnits="userSpaceOnUse"><stop stop-color="#151515" stop-opacity="0.6"></stop><stop offset="1" stop-color="#DADADA" stop-opacity="0.5"></stop></linearGradient><linearGradient id="paint7_linear_6488_370" x1="15.396" y1="0" x2="15.396" y2="30.792" gradientUnits="userSpaceOnUse"><stop stop-color="#151515" stop-opacity="0.6"></stop><stop offset="1" stop-color="#DADADA" stop-opacity="0.5"></stop></linearGradient><linearGradient id="paint8_linear_6488_370" x1="15.396" y1="0" x2="15.396" y2="30.792" gradientUnits="userSpaceOnUse"><stop stop-color="#151515" stop-opacity="0.6"></stop><stop offset="1" stop-color="#DADADA" stop-opacity="0.5"></stop></linearGradient></defs></svg>